<svg xmlns="http://www.w3.org/2000/svg" width="512" height="512" viewBox="0 0 512 512" fill="none">

  <defs>
    <radialGradient id="duatGlow" cx="50%" cy="50%" r="70%">
      <stop offset="0%" stop-color="#24E8FF" stop-opacity="0.42"/>
      <stop offset="42%" stop-color="#3E7BFF" stop-opacity="0.12"/>
      <stop offset="100%" stop-color="#030911" stop-opacity="0"/>
    </radialGradient>
    <linearGradient id="glass" x1="0" y1="0" x2="1" y2="1">
      <stop offset="0%" stop-color="#24E8FF" stop-opacity="0.22"/>
      <stop offset="40%" stop-color="#071525" stop-opacity="0.98"/>
      <stop offset="100%" stop-color="#3E7BFF" stop-opacity="0.2"/>
    </linearGradient>
    <linearGradient id="edge" x1="0" y1="0" x2="1" y2="0">
      <stop offset="0%" stop-color="#24E8FF" stop-opacity="0.25"/>
      <stop offset="50%" stop-color="#00F5D4" stop-opacity="0.9"/>
      <stop offset="100%" stop-color="#3E7BFF" stop-opacity="0.25"/>
    </linearGradient>
    <filter id="softGlow" x="-50%" y="-50%" width="200%" height="200%">
      <feGaussianBlur stdDeviation="6" result="blur"/>
      <feMerge><feMergeNode in="blur"/><feMergeNode in="SourceGraphic"/></feMerge>
    </filter>
    <pattern id="grid" width="42" height="42" patternUnits="userSpaceOnUse">
      <path d="M 42 0 L 0 0 0 42" stroke="#24E8FF" stroke-opacity="0.075" stroke-width="1"/>
    </pattern>
  </defs>

  <rect width="512" height="512" rx="92" fill="#030911"/>
  <rect x="28" y="28" width="456" height="456" rx="74" fill="url(#glass)" stroke="#24E8FF" stroke-opacity="0.45"/>
  <circle cx="256" cy="256" r="190" fill="url(#duatGlow)"/>
  <g filter="url(#softGlow)"><path d="M116 190h162c54 0 98 44 98 98s-44 98-98 98H116" stroke="#24E8FF" stroke-width="14" stroke-linecap="round" fill="none"/><path d="M182 124l-66 66 66 66M330 452l66-66-66-66" stroke="#00F5D4" stroke-width="14" stroke-linecap="round" stroke-linejoin="round"/></g>
  <text x="256" y="462" text-anchor="middle" font-family="Inter, Arial, sans-serif" font-size="24" font-weight="700" fill="#8CB7C9" letter-spacing="3">HANDOFF</text>
</svg>